PathFileType	4	(X/Y/Z)	/Users/itak/Documents/Research/Walk-IL/dataset/trc/00447_00167.trc
DataRate	CameraRate	NumFrames	NumMarkers	Units	OrigDataRate	OrigDataStartFrame	OrigNumFrames
100.000000	100.000000	4	55	mm	100.000000	36	294
Frame#	Time	RPSI			LPSI			L3			STRN			T10			C7			CLAV			RBAK			LBAK			LSHO			LUPA			LAEL			LAOL			LWTS			LWPS			LFRA			LIFD			LHPS			LHTS			RSHO			RUPA			RAEL			RAOL			RWTS			RWPS			RFRA			RIFD			RHTS			RHPS			RBHD			LFHD			RFHD			LBHD			LHIP			RHIP			RASI			LASI			LKNE			LTHI			LANK			LTIP			LTOE			LMT1			LMT5			LHEE			RKNE			RTHI			RANK			RTIP			RTOE			RMT1			RMT5			RHEE			*53			*54			
		X1	Y1	Z1	X2	Y2	Z2	X3	Y3	Z3	X4	Y4	Z4	X5	Y5	Z5	X6	Y6	Z6	X7	Y7	Z7	X8	Y8	Z8	X9	Y9	Z9	X10	Y10	Z10	X11	Y11	Z11	X12	Y12	Z12	X13	Y13	Z13	X14	Y14	Z14	X15	Y15	Z15	X16	Y16	Z16	X17	Y17	Z17	X18	Y18	Z18	X19	Y19	Z19	X20	Y20	Z20	X21	Y21	Z21	X22	Y22	Z22	X23	Y23	Z23	X24	Y24	Z24	X25	Y25	Z25	X26	Y26	Z26	X27	Y27	Z27	X28	Y28	Z28	X29	Y29	Z29	X30	Y30	Z30	X31	Y31	Z31	X32	Y32	Z32	X33	Y33	Z33	X34	Y34	Z34	X35	Y35	Z35	X36	Y36	Z36	X37	Y37	Z37	X38	Y38	Z38	X39	Y39	Z39	X40	Y40	Z40	X41	Y41	Z41	X42	Y42	Z42	X43	Y43	Z43	X44	Y44	Z44	X45	Y45	Z45	X46	Y46	Z46	X47	Y47	Z47	X48	Y48	Z48	X49	Y49	Z49	X50	Y50	Z50	X51	Y51	Z51	X52	Y52	Z52	X53	Y53	Z53	X54	Y54	Z54	X55	Y55	Z55	

37	0.36	-1643.981811523438	965.5897216796875	-613.3292846679688	-1574.103759765625	967.0422973632812	-735.7186279296875	-1605.630249023438	1057.1328125	-653.2116088867188	-1355.162719726562	1257.073364257812	-544.2245483398438	-1620.321655273438	1182.12841796875	-661.6133422851562	-1565.594482421875	1450.586669921875	-620.0225830078125	-1387.302978515625	1370.847290039062	-563.5887451171875	-1660.729736328125	1332.013427734375	-558.6961059570312	-1558.21484375	1402.045776367188	-722.8344116210938	-1433.513427734375	1427.43115234375	-761.5219116210938	-1406.459716796875	1308.899047851562	-857.21630859375	-1376.674682617188	1093.28515625	-882.3794555664062	-1473.053588867188	1078.756591796875	-849.0036010742188	-1317.203125	896.229736328125	-819.0552368164062	-1342.66162109375	878.5225830078125	-887.5021362304688	-1354.089721679688	1006.216064453125	-886.9006958007812	-1293.041625976562	733.7682495117188	-818.7316284179688	-1323.467651367188	799.68115234375	-885.6204223632812	-1284.906616210938	814.4879760742188	-824.8023681640625	-1564.34423828125	1420.876831054688	-443.8652038574219	-1609.12158203125	1358.371337890625	-381.3487243652344	-1620.609375	1071.47607421875	-326.9675598144531	-1656.296630859375	1054.856201171875	-381.9267578125	-1509.354248046875	870.8757934570312	-329.6966552734375	-1592.56689453125	858.5305786132812	-303.7576293945312	-1619.572875976562	1013.548645019531	-317.0693054199219	-1518.092895507812	711.71484375	-306.5320129394531	-1504.755493164062	771.3421630859375	-303.5442504882812	-1579.315551757812	779.0883178710938	-287.1388854980469	-1516.636840820312	1647.364501953125	-506.3250427246094	-1329.5263671875	1659.505859375	-597.1425170898438	-1382.02197265625	1657.671264648438	-476.6134338378906	-1461.4814453125	1655.20947265625	-675.2606201171875	-1399.556884765625	863.7322998046875	-773.0592651367188	-1615.315185546875	863.6650390625	-435.9402465820312	-1490.102416992188	901.7484741210938	-440.0270690917969	-1350.833251953125	900.4974975585938	-656.2296142578125	-1404.151611328125	439.2693786621094	-735.2904052734375	-1371.191772460938	592.8291625976562	-741.2756958007812	-1526.06689453125	35.48879623413086	-803.4337768554688	-1431.04638671875	286.6198425292969	-762.69140625	-1360.629516601562	53.75188446044922	-633.8187866210938	-1439.6181640625	54.68727493286133	-643.0580444335938	-1390.031860351562	54.47369766235352	-743.06591796875	-1597.166381835938	33.26226425170898	-782.1115112304688	-1584.154296875	471.3819885253906	-436.7554931640625	-1583.103271484375	731.3584594726562	-404.0744018554688	-1667.490356445312	43.56143188476562	-456.9854736328125	-1606.275756835938	325.4447021484375	-425.9404296875	-1453.823120117188	56.96142196655273	-406.0290832519531	-1494.268920898438	58.68464279174805	-468.0841369628906	-1554.673950195312	50.32584762573242	-379.9866638183594	-1707.494018554688	31.65689468383789	-527.8536376953125	nan	nan	nan	nan	nan	nan	
38	0.37	-1641.696899414062	965.6937255859375	-613.0165405273438	-1571.785888671875	967.1423950195312	-735.3716430664062	-1603.297241210938	1056.978515625	-652.821044921875	-1352.690063476562	1256.76171875	-543.854248046875	-1617.949584960938	1182.026245117188	-661.1613159179688	-1563.095703125	1450.435791015625	-619.4735107421875	-1384.782470703125	1370.572998046875	-563.1450805664062	-1658.231811523438	1331.829956054688	-558.1502075195312	-1555.7646484375	1401.90185546875	-722.2879638671875	-1431.082885742188	1427.258178710938	-761.0575561523438	-1404.281494140625	1308.6982421875	-856.8087768554688	-1374.942504882812	1093.009887695312	-882.0156860351562	-1471.314697265625	1078.738891601562	-848.54296875	-1315.9091796875	895.7659301757812	-818.8479614257812	-1341.53369140625	878.1484985351562	-887.2630615234375	-1352.590087890625	1005.926330566406	-886.585205078125	-1291.64404296875	733.4611206054688	-818.5408325195312	-1322.58642578125	799.2807006835938	-885.5202026367188	-1284.0244140625	813.8540649414062	-824.6416625976562	-1561.789184570312	1420.643676757812	-443.3702392578125	-1606.521606445312	1358.160888671875	-380.8259582519531	-1617.967651367188	1071.275512695312	-326.19482421875	-1653.751342773438	1054.590576171875	-381.0992736816406	-1506.388793945312	870.8397216796875	-329.0235595703125	-1589.539306640625	858.3843383789062	-302.8707885742188	-1616.83447265625	1013.358825683594	-316.2308349609375	-1514.81689453125	711.6934814453125	-305.9759216308594	-1501.555908203125	771.31591796875	-302.97705078125	-1576.112548828125	778.7955932617188	-286.3830261230469	-1514.256469726562	1647.12841796875	-505.8559265136719	-1327.180297851562	1659.494873046875	-596.7603149414062	-1379.644653320312	1657.673461914062	-476.2160949707031	-1459.149047851562	1654.91552734375	-674.8029174804688	-1397.4072265625	863.479248046875	-772.71728515625	-1613.346923828125	863.641845703125	-435.6963806152344	-1487.969970703125	901.453857421875	-439.7271118164062	-1348.654907226562	900.0957641601562	-655.85205078125	-1403.24755859375	438.9360046386719	-735.135498046875	-1369.841430664062	592.4334716796875	-740.9736328125	-1526.048828125	35.45923614501953	-803.4148559570312	-1430.339599609375	286.4142761230469	-762.3796997070312	-1360.693603515625	53.71446990966797	-633.7750244140625	-1439.658935546875	54.6063346862793	-642.9953002929688	-1390.087768554688	54.56466674804688	-743.02587890625	-1597.172241210938	33.25946426391602	-782.1134643554688	-1583.240112304688	471.3045043945312	-436.6049499511719	-1581.3193359375	731.1920166015625	-403.8199157714844	-1667.563598632812	43.57261657714844	-456.9685668945312	-1605.756225585938	325.41552734375	-425.8883056640625	-1453.907348632812	57.12351608276367	-405.9443664550781	-1494.287231445312	58.74211502075195	-468.1007385253906	-1554.6728515625	50.29561233520508	-379.9905090332031	-1707.505859375	31.62874412536621	-527.8396606445312	nan	nan	nan	nan	nan	nan	
39	0.38	-1639.323852539062	965.780029296875	-612.7150268554688	-1569.380615234375	967.2300415039062	-735.0241088867188	-1600.865234375	1056.802124023438	-652.4140625	-1350.11572265625	1256.414672851562	-543.4632568359375	-1615.502563476562	1181.931274414062	-660.6903686523438	-1560.4677734375	1450.275024414062	-618.8941650390625	-1382.147827148438	1370.26806640625	-562.6776123046875	-1655.624145507812	1331.63818359375	-557.570068359375	-1553.209228515625	1401.748901367188	-721.6964721679688	-1428.539306640625	1427.083618164062	-760.554443359375	-1402.001342773438	1308.504638671875	-856.3896484375	-1373.1103515625	1092.732421875	-881.6407470703125	-1469.509399414062	1078.7314453125	-848.0791015625	-1314.49853515625	895.305908203125	-818.6068115234375	-1340.283081054688	877.78173828125	-886.9974365234375	-1350.989501953125	1005.631164550781	-886.260498046875	-1289.596923828125	733.2062377929688	-818.1309814453125	-1321.578247070312	798.8812866210938	-885.3760375976562	-1283.10888671875	813.1757202148438	-824.4473876953125	-1559.118896484375	1420.396728515625	-442.8429260253906	-1603.800170898438	1357.935424804688	-380.2689514160156	-1615.157470703125	1071.069091796875	-325.3617858886719	-1651.046508789062	1054.304565429688	-380.2158508300781	-1503.256103515625	870.7953491210938	-328.2866821289062	-1586.341552734375	858.2081298828125	-301.9318542480469	-1613.905517578125	1013.141784667969	-315.338134765625	-1511.33056640625	711.6583862304688	-305.3649597167969	-1498.168090820312	771.2843017578125	-302.3429870605469	-1572.7236328125	778.449462890625	-285.5928344726562	-1511.7529296875	1646.870483398438	-505.3396911621094	-1324.72021484375	1659.472778320312	-596.3276977539062	-1377.14990234375	1657.646362304688	-475.7646789550781	-1456.693481445312	1654.600463867188	-674.2971801757812	-1395.154663085938	863.201416015625	-772.3618774414062	-1611.313110351562	863.59619140625	-435.4639587402344	-1485.805419921875	901.12353515625	-439.4190979003906	-1346.414794921875	899.6585083007812	-655.4465942382812	-1402.302001953125	438.5890502929688	-734.930908203125	-1368.430297851562	592.0193481445312	-740.6475830078125	-1525.989624023438	35.37345886230469	-803.3944091796875	-1429.712280273438	286.1471252441406	-762.1502685546875	-1360.756103515625	53.63496398925781	-633.7299194335938	-1439.698364257812	54.50760650634766	-642.9278564453125	-1390.134887695312	54.64750289916992	-742.9882202148438	-1597.18115234375	33.26473999023438	-782.1165161132812	-1582.278564453125	471.2035522460938	-436.4744567871094	-1579.489501953125	731.0005493164062	-403.5668640136719	-1667.603393554688	43.58199691772461	-456.9573974609375	-1605.211303710938	325.3854064941406	-425.8432312011719	-1453.992553710938	57.25761413574219	-405.8428955078125	-1494.295532226562	58.76995849609375	-468.1068420410156	-1554.661499023438	50.24251556396484	-379.980712890625	-1707.511108398438	31.61610984802246	-527.8280029296875	nan	nan	nan	nan	nan	nan	
40	0.39	-1636.862426757812	965.8532104492188	-612.42333984375	-1566.885375976562	967.3076171875	-734.6728515625	-1598.33251953125	1056.604125976562	-651.9901123046875	-1347.439697265625	1256.032104492188	-543.0475463867188	-1612.968994140625	1181.830810546875	-660.1998291015625	-1557.708862304688	1450.097900390625	-618.2821655273438	-1379.39794921875	1369.932861328125	-562.1863403320312	-1652.905883789062	1331.442626953125	-556.954833984375	-1550.554931640625	1401.59814453125	-721.0670166015625	-1425.882446289062	1426.90283203125	-760.0139770507812	-1399.612060546875	1308.312866210938	-855.9547119140625	-1371.1787109375	1092.455688476562	-881.2515258789062	-1467.620727539062	1078.717041015625	-847.6021118164062	-1312.981079101562	894.8489379882812	-818.3336791992188	-1338.9052734375	877.4248657226562	-886.7095336914062	-1349.279296875	1005.323364257812	-885.9229736328125	-1286.981201171875	732.9905395507812	-817.5137329101562	-1320.428344726562	798.4796752929688	-885.1845092773438	-1282.137329101562	812.4559936523438	-824.2197265625	-1556.331176757812	1420.1328125	-442.2793884277344	-1600.959106445312	1357.685791015625	-379.6743774414062	-1612.180053710938	1070.851928710938	-324.46923828125	-1648.187255859375	1053.996948242188	-379.2787475585938	-1499.963745117188	870.740234375	-327.4823913574219	-1582.97705078125	857.9939575195312	-300.9462280273438	-1610.794189453125	1012.898071289062	-314.3914184570312	-1507.638305664062	711.601806640625	-304.7166748046875	-1494.600708007812	771.239013671875	-301.6464538574219	-1569.152099609375	778.0455322265625	-284.7792663574219	-1509.122680664062	1646.59375	-504.7752380371094	-1322.140625	1659.427001953125	-595.8464965820312	-1374.530517578125	1657.584594726562	-475.2574768066406	-1454.117553710938	1654.269287109375	-673.7486572265625	-1392.799438476562	862.8988037109375	-771.9879150390625	-1609.21435546875	863.5261840820312	-435.2325439453125	-1483.599975585938	900.7608642578125	-439.0951843261719	-1344.103149414062	899.1912231445312	-655.0084838867188	-1401.309692382812	438.2355041503906	-734.6710815429688	-1366.955932617188	591.5894775390625	-740.3026733398438	-1525.8935546875	35.23368072509766	-803.3724975585938	-1429.127807617188	285.8424072265625	-761.9737548828125	-1360.816040039062	53.52152633666992	-633.6857299804688	-1439.739013671875	54.39757537841797	-642.8594360351562	-1390.173706054688	54.72550582885742	-742.952880859375	-1597.1923828125	33.27582550048828	-782.12060546875	-1581.262817382812	471.0873413085938	-436.3661193847656	-1577.62109375	730.79736328125	-403.3265991210938	-1667.609252929688	43.59134674072266	-456.9513549804688	-1604.639404296875	325.3555603027344	-425.8088073730469	-1454.076171875	57.35971832275391	-405.7301330566406	-1494.294311523438	58.76840591430664	-468.100830078125	-1554.638671875	50.16408538818359	-379.9576416015625	-1707.514282226562	31.62506675720215	-527.82177734375	nan	nan	nan	nan	nan	nan	
